# xmcd
#
# Track frame offsets: 
#        150
#        14219
#        26597
#        42649
#        57567
#        79450
#        96177
#        112457
#        124230
#        137665
#        165707
#        183627
#        199011
#        222032
#
# Disc length: 3127 seconds
#
# Revision: 0
# Processed by: cddbd v1.5.2PL0 Copyright (c) Steve Scherf et al.
# Submitted via: ExactAudioCopy v1.0b1
#
DISCID=dd0c350e
DTITLE=Lyle Lovett - Release Me
DYEAR=2012
DGENRE=Country
TTITLE0=Garfield's Blackberry Blossom
TTITLE1=Release Me
TTITLE2=White Boy Lost In The Blues
TTITLE3=Baby, It's Cold Outside
TTITLE4=Isn't That So
TTITLE5=Understand You
TTITLE6=Brown Eyed Handsome Man
TTITLE7=Keep It Clean
TTITLE8=One Way Gal
TTITLE9=Dress Of Laces
TTITLE10=The Girl With The Holiday Smile
TTITLE11=Night's Lullaby
TTITLE12=White Freightliner Blues
TTITLE13=Keep Us Steadfast
EXTD=
EXTT0=
EXTT1=
EXTT2=
EXTT3=
EXTT4=
EXTT5=
EXTT6=
EXTT7=
EXTT8=
EXTT9=
EXTT10=
EXTT11=
EXTT12=
EXTT13=
PLAYORDER=
